<?xml version="1.0" encoding="utf-8"?>
<!-- Generator: Adobe Illustrator 15.0.2, SVG Export Plug-In . SVG Version: 6.00 Build 0)  -->
<!DOCTYPE svg PUBLIC "-//W3C//DTD SVG 1.1//EN" "http://www.w3.org/Graphics/SVG/1.1/DTD/svg11.dtd">
<svg version="1.1" id="Layer_1" xmlns="http://www.w3.org/2000/svg" xmlns:xlink="http://www.w3.org/1999/xlink" x="0px" y="0px"
	 width="336px" height="86px" viewBox="0 0 336 86" enable-background="new 0 0 336 86" xml:space="preserve">
<g>
	<path d="M250.084,67.432c0-8.033-3.939-10.283-8.852-10.283c-5.168,0-8.391,2.812-9.619,6.906h-0.102
		c0.461-2.609,0.613-4.605,0.613-6.293h-7.316v2.25h4.554v21.797h-3.991h-6.397V57.762h-7.267v2.25h4.707l-0.203,11.359
		c-0.104,6.855-3.121,10.846-8.494,10.846c-4.758,0-6.805-2.609-6.805-7.98c0-5.475,0.154-11,0.205-16.475h-15.115
		c-1.226-0.396-2.586-0.613-4.084-0.613c-8.086,0-12.23,6.24-12.23,13.762c0,2.553,0.489,4.949,1.436,7.014
		c-2.325,2.141-4.791,4.209-11.723,4.293c-6.701,0.082-9.926-4.652-9.926-11.307c0-6.65,3.223-11.307,9.926-11.307
		c2.559,0,4.35,0.357,5.68,0.818v4.502h2.455v-6.395c-1.996-0.717-4.195-1.381-7.98-1.381c-8.646,0-12.945,6.24-12.945,13.762
		s4.145,13.764,12.689,13.764c4.465,0,9.128-0.852,13.083-4.59c2.04,2.801,5.221,4.59,9.536,4.59
		c8.084,0,12.227-6.242,12.227-13.764c0-4.411-1.436-8.369-4.244-10.898h8.557c-0.051,4.811-0.205,9.568-0.205,14.377
		c0,7.932,3.99,10.285,9.363,10.285c4.348,0,7.93-2.814,9.158-6.908h0.102c-0.461,2.609-0.613,4.605-0.613,6.293h9.109h2.492h8.252
		v-2.25h-1.373h-2.77l0.102-12.484c0.051-4.963,3.223-9.721,8.545-9.721c4.758,0,6.805,2.609,6.805,7.98
		c0,4.76-0.154,9.465-0.205,14.225h-3.939v2.25h10.744v-2.25h-4.145C249.93,76.998,250.084,72.24,250.084,67.432z M191.279,70.91
		c0,6.65-3.223,11.307-9.361,11.307c-6.141,0-9.365-4.656-9.365-11.307s3.225-11.307,9.365-11.307
		C188.057,59.604,191.279,64.26,191.279,70.91z"/>
	<path d="M267.818,70.143l-4.859-1.074c-3.07-0.666-4.451-2.199-4.451-4.809c0-2.969,2.303-4.861,6.445-4.861
		c2.559,0,4.248,0.512,5.373,1.125l0.102,4.248h2.457l-0.104-5.986c-2.199-0.973-4.707-1.637-7.98-1.637
		c-5.475,0-9.158,3.018-9.158,7.367c0,3.887,2.66,5.934,6.957,6.957l4.504,1.074c3.428,0.818,4.502,2.354,4.502,4.605
		c0,2.354-1.791,5.27-6.855,5.27c-2.609,0-5.27-0.666-6.396-1.381l-0.102-4.451h-2.508l0.205,6.344
		c1.791,0.92,4.861,1.74,8.596,1.74c5.936,0,9.926-2.508,9.926-7.879C274.471,73.162,272.373,71.115,267.818,70.143z"/>
	<path d="M288.043,57.148c-7.471,0-11.562,6.037-11.562,13.301c0,8.75,4.348,14.225,12.893,14.225c3.326,0,6.754-1.023,8.391-1.996
		l0.102-2.66c-2.199,1.176-4.963,2.199-8.084,2.199c-6.906,0-10.334-4.092-10.436-11.562h19.697
		C299.043,64.26,296.689,57.148,288.043,57.148z M287.889,59.604c5.73,0,8.289,4.094,8.289,8.799h-16.832
		C279.346,65.283,281.391,59.604,287.889,59.604z"/>
	<path d="M282.803,9.027c2.201,0,3.939-1.74,3.939-3.939c0-2.201-1.738-3.939-3.939-3.939c-2.199,0-3.939,1.738-3.939,3.939
		C278.863,7.287,280.604,9.027,282.803,9.027z"/>
	<path d="M250.729,9.055c2.201,0,3.939-1.74,3.939-3.939c0-2.201-1.738-3.939-3.939-3.939c-2.199,0-3.939,1.738-3.939,3.939
		C246.789,7.314,248.529,9.055,250.729,9.055z"/>
	<path d="M323.467,14.529v4.195h3.48l-4.707,13.66c-0.377,1.088-1.083,2.276-1.47,3.317c-0.286-1.042-0.567-2.228-0.987-3.317
		l-5.115-13.66h2.967v-4.195h-11.053h-1.123h-6.5l0.205-6.396l-5.781,0.41l-0.104,5.986h-7.611v-0.027h-9.771v4.195h3.99V36.91
		h-3.529v0.027h-7.669V1.789h-10.284v4.195h4.554v30.953h-3.325v0.046l-6.09-0.046V14.529h-18.839
		c-1.161-0.395-2.451-0.615-3.882-0.615c-5.371,0-8.135,3.531-9.107,6.141h-0.102c0.205-1.893,0.408-3.734,0.461-5.629l0.203-12.637
		H212.25v4.195h4.299l-0.188,30.953h-7.95c0.051-4.297,0.205-8.543,0.205-12.842c0-6.293-2.508-10.182-10.387-10.182
		c-5.68,0-9.107,1.74-10.539,2.406v6.6h5.115v-3.889c0.871-0.357,2.814-0.922,4.811-0.922c4.707,0,5.883,2.303,5.883,5.578v1.994
		l-5.475,0.307c-4.348,0.205-11.459,1.127-11.459,8.135c0,0.264,0.018,0.533,0.045,0.805c-3.083,1.826-5.559,2.316-7.057,2.316
		c-2.66,0-3.734-1.227-3.734-6.088c0-3.99,0.051-8.186,0.102-12.432h7.623v-4.195h-7.623l0.205-6.396l-5.783,0.41l-0.102,5.986
		h-4.043v4.195h4.043c-0.053,4.604-0.154,11.408-0.154,14.836c0,1.303,0.111,2.416,0.332,3.377h-7.498
		c0.051-4.246,0.203-8.492,0.203-12.738c0-6.346-3.018-10.285-9.26-10.285c-5.32,0-8.289,3.07-9.363,6.498h-0.102
		c0.357-2.25,0.512-4.092,0.512-5.883h-9.465v4.195h3.684v18.213h-3.07h-5.832V14.529h-9.158v4.195h3.479l-0.102,10.129
		c-0.051,4.963-3.07,8.084-6.855,8.084c-3.479,0-5.219-2.762-5.219-6.498c0-5.32,0.102-10.641,0.205-15.91H93.186
		c-1.296-0.387-2.749-0.615-4.404-0.615c-8.135,0-13.916,5.781-13.916,14.48c0,1.934,0.318,3.85,0.979,5.606
		c-0.573,0.438-1.579,1.142-2.931,1.724c-1.48,0.637-4.09,1.338-6.43,1.338c-7.061,0-9.311-4.912-9.311-9.516
		c0-5.064,2.711-9.004,7.98-9.004c1.279,0,2.559,0.203,3.377,0.459v3.939h4.809v-7.52c-1.125-0.512-3.529-1.383-7.572-1.383
		c-9.311,0-14.324,5.936-14.324,14.07c0,1.92,0.315,3.874,1.002,5.688c-0.549,0.428-1.594,1.182-3.031,1.802
		c-1.48,0.637-4.09,1.338-6.43,1.338c-7.061,0-9.811-4.912-9.811-9.516c0-5.064,3.211-9.004,8.48-9.004
		c1.279,0,2.559,0.203,3.377,0.459v3.939h4.809v-7.52c-1.125-0.512-3.529-1.383-7.572-1.383c-9.311,0-14.824,5.936-14.824,14.07
		c0,3.152,0.943,6.4,3.055,8.953H23.09c0.053-4.297,0.205-8.543,0.205-12.842c0-6.293-2.506-10.182-10.387-10.182
		c-5.678,0-9.105,1.74-10.539,2.406v6.6h5.117v-3.889c0.869-0.357,2.814-0.922,4.809-0.922c4.707,0,5.885,2.303,5.885,5.578v1.994
		l-5.475,0.307c-4.35,0.205-11.461,1.127-11.461,8.135c0,3.377,2.098,7.623,8.492,7.623c5.578,0,7.727-3.121,8.852-6.139h0.104
		c-0.309,1.791-0.461,3.836-0.461,5.523h19.033c1.467,0.389,3.105,0.615,4.953,0.615c3.271,0,7.156-0.368,12.793-3.826
		c2.255,2.363,5.695,3.951,10.707,3.951c3.25,0,7.108-0.365,12.687-3.764c2.131,2.203,5.291,3.639,9.714,3.639
		c9.105,0,13.711-6.189,13.711-13.762c0-3.184-0.771-6.592-2.684-9.26h7.701c-0.154,4.246-0.205,8.492-0.205,12.842
		c0,6.242,3.326,10.18,9.004,10.18c4.195,0,8.238-2.559,9.312-6.496h0.102c-0.357,2.25-0.512,4.09-0.512,5.881h11.512h1.625h10.705
		v-4.193h-3.582l0.205-10.129c0.104-4.963,3.07-8.084,7.01-8.084c3.633,0,5.371,2.762,5.371,6.498c0,3.887-0.152,7.826-0.203,11.715
		h-3.02v4.193h19.652c1.092,0.419,2.441,0.615,4.094,0.615c2.539,0,5.444-0.82,10.018-3.149c1.266,1.791,3.506,3.149,7.123,3.149
		c5.576,0,7.725-3.121,8.852-6.139h0.102c-0.307,1.791-0.461,3.836-0.461,5.523h17.264c1.623,0.369,3.49,0.615,5.764,0.615
		c11.461,0,15.041-7.826,15.041-15.758c0-2.82-0.613-5.295-1.775-7.264h7.971v18.213h-3.531v4.193h15.352h1.957h22.359l-0.012-0.027
		h5.211V36.91h-3.541V18.725h7.672c-0.051,4.604-0.152,11.408-0.152,14.836c0,5.984,2.199,8.186,7.826,8.186
		c2.252,0,4.451-0.615,5.885-1.33l0.205-4.193c-1.279,0.51-2.916,1.021-4.451,1.021c-2.66,0-3.736-1.227-3.736-6.088
		c0-3.99,0.053-8.186,0.104-12.432h6.5h1.123h1.742l9.822,23.84l-0.205,0.562c-2.199,5.883-4.654,6.957-7.213,6.957
		c-1.104,0-2.688-0.18-3.559-0.498l0.027-4.873h-8.492v2.252h5.729v34.844h-4.45v2.25h11.562v-2.25h-4.479V54.07
		c0.83,0.286,2.201,0.518,3.557,0.518c3.428,0,6.754-1.127,9.158-4.248c1.535-1.994,3.326-6.957,4.195-9.361l8.084-22.254h2.66
		v-4.195H323.467z M18.076,30.492c0,3.377-2.404,6.752-6.855,6.752c-2.711,0-4.246-1.586-4.246-3.58
		c0-3.939,5.168-4.195,11.102-4.246V30.492z M88.27,36.938c-5.166,0-7.367-4.297-7.367-8.748c0-4.707,2.098-9.465,7.777-9.465
		c3.99,0,7.111,2.66,7.111,8.646C95.791,32.59,93.488,36.938,88.27,36.938z M203.396,30.492c0,3.377-2.404,6.752-6.855,6.752
		c-2.713,0-4.248-1.586-4.248-3.58c0-3.939,5.168-4.195,11.104-4.246V30.492z M227.24,36.938c-2.609,0-4.195-0.613-5.27-1.125
		l0.205-9.465c0.102-4.246,2.404-7.623,6.906-7.623c4.35,0,6.498,3.018,6.498,7.674C235.58,31.924,233.277,36.938,227.24,36.938z"/>
</g>
<g>
	<path fill="#7FD6DB" d="M100.12,44.401c-3.703,0-6.716,3.042-6.716,6.78c0,3.737,3.013,6.778,6.716,6.778
		c3.705,0,6.72-3.041,6.72-6.778C106.84,47.443,103.825,44.401,100.12,44.401z M100.12,55.579c-2.391,0-4.335-1.973-4.335-4.397
		c0-2.426,1.944-4.399,4.335-4.399c2.393,0,4.339,1.974,4.339,4.399C104.459,53.606,102.513,55.579,100.12,55.579z"/>
	<path fill="#7FD6DB" d="M111.892,84.492H88.354l-0.004-16.488c0-5.145,5.279-9.33,11.77-9.33c6.491,0,11.771,4.186,11.771,9.33
		V84.492z M90.999,81.848h18.248V68.004c0-3.687-4.095-6.686-9.127-6.686c-5.031,0-9.125,2.999-9.125,6.686L90.999,81.848z"/>
</g>
<g>
	<path fill="#34B6CD" d="M115.612,44.405c-3.703,0-6.716,3.042-6.716,6.78c0,3.737,3.013,6.778,6.716,6.778
		c3.704,0,6.72-3.041,6.72-6.778C122.332,47.447,119.316,44.405,115.612,44.405z M115.612,55.583c-2.391,0-4.335-1.973-4.335-4.397
		c0-2.426,1.944-4.399,4.335-4.399c2.393,0,4.339,1.974,4.339,4.399C119.951,53.61,118.005,55.583,115.612,55.583z"/>
	<path fill="#34B6CD" d="M127.383,84.494h-23.536l-0.004-16.486c0-5.146,5.279-9.332,11.77-9.332c6.491,0,11.771,4.187,11.771,9.332
		V84.494z M106.491,81.85h18.248V68.008c0-3.688-4.095-6.688-9.127-6.688c-5.031,0-9.125,3-9.125,6.688L106.491,81.85z"/>
</g>
<g>
	<path fill="#009BAA" d="M131.087,44.402c-3.704,0-6.716,3.042-6.716,6.78c0,3.737,3.012,6.778,6.716,6.778
		c3.705,0,6.72-3.041,6.72-6.778C137.807,47.444,134.792,44.402,131.087,44.402z M131.087,55.58c-2.391,0-4.335-1.973-4.335-4.397
		c0-2.426,1.944-4.399,4.335-4.399c2.393,0,4.339,1.974,4.339,4.399C135.426,53.607,133.479,55.58,131.087,55.58z"/>
	<path fill="#009BAA" d="M142.858,84.491h-23.537l-0.005-16.486c0-5.146,5.28-9.332,11.771-9.332c6.491,0,11.771,4.187,11.771,9.332
		V84.491z M121.966,81.847h18.248V68.005c0-3.688-4.095-6.688-9.127-6.688s-9.126,3-9.126,6.688L121.966,81.847z"/>
</g>
</svg>
